<svg xmlns="http://www.w3.org/2000/svg" viewBox="0 0 128 128">
  <g stroke="#0B2D6B" stroke-width="5" stroke-linejoin="round" stroke-linecap="round">
    <path d="M52 100 L48 118 M46 118 L56 118 M74 100 L78 118 M70 118 L82 118" fill="none" stroke="#FF9A1F" stroke-width="6"/>
    <path d="M100 62 C118 52 118 76 102 80 C116 84 108 100 96 92 Z" fill="#FFD54A"/>
    <ellipse cx="66" cy="78" rx="40" ry="30" fill="#FFF6E0"/>
    <ellipse cx="74" cy="82" rx="18" ry="12" fill="#FFE2A8"/>
    <circle cx="42" cy="46" r="25" fill="#FFF6E0"/>
    <path d="M28 26 C26 12 40 12 40 24 C42 10 56 12 52 26 Z" fill="#F0413E"/>
    <path d="M18 50 L2 56 L18 62 Z" fill="#FF9A1F"/>
    <ellipse cx="26" cy="68" rx="6" ry="8" fill="#F0413E"/>
    <circle cx="34" cy="44" r="5" fill="#0B2D6B" stroke="none"/>
  </g>
  <circle cx="36" cy="42" r="1.8" fill="#fff"/>
</svg>
